<svg xmlns="http://www.w3.org/2000/svg" width="200" height="356" viewBox="0 0 200 356">
  <defs>
    <linearGradient id="bg" x1="0" y1="0" x2="1" y2="1">
      <stop offset="0" stop-color="#0D0A1A"/>
      <stop offset="1" stop-color="#181030"/>
    </linearGradient>
    <linearGradient id="accentGrad" x1="0" y1="0" x2="1" y2="1">
      <stop offset="0" stop-color="#9B8CFF"/>
      <stop offset="1" stop-color="#7B68EE"/>
    </linearGradient>
    <radialGradient id="coreGrad" cx="0.35" cy="0.3" r="1">
      <stop offset="0" stop-color="#C4B5FD"/>
      <stop offset="0.5" stop-color="#8B7CF6"/>
      <stop offset="1" stop-color="#5B4BC4"/>
    </radialGradient>
    <filter id="glow">
      <feGaussianBlur stdDeviation="3" result="b"/>
      <feMerge><feMergeNode in="b"/><feMergeNode in="SourceGraphic"/></feMerge>
    </filter>
    <pattern id="grid" width="16" height="16" patternUnits="userSpaceOnUse">
      <path d="M16 0H0V16" fill="none" stroke="#2A2150" stroke-width="0.5"/>
    </pattern>
  </defs>
  <rect width="200" height="356" fill="url(#bg)"/>
  <rect width="200" height="356" fill="url(#grid)" opacity="0.5"/>
  <rect x="0" y="0" width="200" height="2" fill="url(#accentGrad)" opacity="0.8"/>
  <g transform="translate(100,132)">
    <g>
      <circle r="52" fill="none" stroke="#9B8CFF" stroke-width="1" stroke-dasharray="3 6" opacity="0.5">
        <animateTransform attributeName="transform" type="rotate" from="0 0 0" to="360 0 0" dur="18s" repeatCount="indefinite"/>
      </circle>
    </g>
    <g>
      <circle r="40" fill="none" stroke="#7B68EE" stroke-width="0.8" stroke-dasharray="2 5" opacity="0.45">
        <animateTransform attributeName="transform" type="rotate" from="360 0 0" to="0 0 0" dur="24s" repeatCount="indefinite"/>
      </circle>
    </g>
    <g stroke="#3A2E70" stroke-width="0.7" opacity="0.6">
      <line x1="0" y1="-52" x2="0" y2="52"/>
      <line x1="-52" y1="0" x2="52" y2="0"/>
      <line x1="-37" y1="-37" x2="37" y2="37"/>
      <line x1="37" y1="-37" x2="-37" y2="37"/>
    </g>
    <g filter="url(#glow)">
      <g>
        <rect x="-11" y="-13" width="22" height="26" rx="3" fill="#2A2150" stroke="#9B8CFF" stroke-width="0.8"/>
        <rect x="-7" y="-8" width="14" height="3" rx="1.5" fill="#9B8CFF" opacity="0.7"/>
        <rect x="-7" y="-2" width="10" height="3" rx="1.5" fill="#9B8CFF" opacity="0.4"/>
        <rect x="-7" y="4" width="12" height="3" rx="1.5" fill="#9B8CFF" opacity="0.55"/>
        <animateTransform attributeName="transform" type="rotate" from="0 0 0" to="360 0 0" dur="14s" repeatCount="indefinite" additive="sum"/>
        <animateMotion dur="14s" repeatCount="indefinite" path="M0,-52 A52,52 0 1,1 -0.01,-52 Z"/>
      </g>
      <g>
        <rect x="-11" y="-13" width="22" height="26" rx="3" fill="#2A2150" stroke="#7B68EE" stroke-width="0.8"/>
        <rect x="-7" y="-8" width="14" height="3" rx="1.5" fill="#7B68EE" opacity="0.7"/>
        <rect x="-7" y="-2" width="10" height="3" rx="1.5" fill="#7B68EE" opacity="0.4"/>
        <rect x="-7" y="4" width="12" height="3" rx="1.5" fill="#7B68EE" opacity="0.55"/>
        <animateTransform attributeName="transform" type="rotate" from="120 0 0" to="480 0 0" dur="18s" repeatCount="indefinite" additive="sum"/>
        <animateMotion dur="18s" repeatCount="indefinite" path="M0,-52 A52,52 0 1,1 -0.01,-52 Z" begin="4.7s"/>
      </g>
      <g>
        <rect x="-11" y="-13" width="22" height="26" rx="3" fill="#2A2150" stroke="#C4B5FD" stroke-width="0.8"/>
        <rect x="-7" y="-8" width="14" height="3" rx="1.5" fill="#C4B5FD" opacity="0.7"/>
        <rect x="-7" y="-2" width="10" height="3" rx="1.5" fill="#C4B5FD" opacity="0.4"/>
        <rect x="-7" y="4" width="12" height="3" rx="1.5" fill="#C4B5FD" opacity="0.55"/>
        <animateTransform attributeName="transform" type="rotate" from="240 0 0" to="600 0 0" dur="16s" repeatCount="indefinite" additive="sum"/>
        <animateMotion dur="16s" repeatCount="indefinite" path="M0,-52 A52,52 0 1,1 -0.01,-52 Z" begin="9.3s"/>
      </g>
    </g>
    <g filter="url(#glow)">
      <rect x="-24" y="-31" width="48" height="62" rx="8" fill="url(#coreGrad)">
        <animate attributeName="y" values="-31;-34;-31" dur="3s" repeatCount="indefinite"/>
      </rect>
      <rect x="-15" y="-22" width="30" height="4" rx="2" fill="#0D0A1A" opacity="0.9"/>
      <rect x="-15" y="-13" width="24" height="4" rx="2" fill="#0D0A1A" opacity="0.7"/>
      <rect x="-15" y="-4" width="30" height="4" rx="2" fill="#0D0A1A" opacity="0.9"/>
      <rect x="-15" y="5" width="20" height="4" rx="2" fill="#0D0A1A" opacity="0.6"/>
      <circle cx="14" cy="-16" r="5" fill="none" stroke="#0D0A1A" stroke-width="1.5" opacity="0.8"/>
      <path d="M12 -16 L14 -14 L17 -18" stroke="#0D0A1A" stroke-width="1.2" fill="none" opacity="0.9"/>
    </g>
    <g>
      <circle r="2.6" fill="#C4B5FD" opacity="0.9">
        <animateMotion dur="7s" repeatCount="indefinite" path="M0,-40 A40,40 0 1,1 -0.01,-40 Z"/>
      </circle>
    </g>
    <g>
      <circle r="2" fill="#9B8CFF" opacity="0.85">
        <animateMotion dur="10s" repeatCount="indefinite" path="M0,-40 A40,40 0 1,0 -0.01,-40 Z" begin="3.5s"/>
      </circle>
    </g>
  </g>
  <g opacity="0.5">
    <rect x="40" y="246" width="2" height="12" rx="1" fill="#9B8CFF">
      <animate attributeName="y" from="246" to="200" dur="2.6s" repeatCount="indefinite"/>
      <animate attributeName="opacity" from="0.8" to="0" dur="2.6s" repeatCount="indefinite"/>
    </rect>
    <rect x="100" y="254" width="2" height="12" rx="1" fill="#7B68EE">
      <animate attributeName="y" from="254" to="200" dur="3s" repeatCount="indefinite" begin="0.6s"/>
      <animate attributeName="opacity" from="0.8" to="0" dur="3s" repeatCount="indefinite" begin="0.6s"/>
    </rect>
    <rect x="160" y="248" width="2" height="12" rx="1" fill="#C4B5FD">
      <animate attributeName="y" from="248" to="200" dur="2.8s" repeatCount="indefinite" begin="1.2s"/>
      <animate attributeName="opacity" from="0.8" to="0" dur="2.8s" repeatCount="indefinite" begin="1.2s"/>
    </rect>
  </g>
  <rect x="156" y="326" width="30" height="17" rx="3" fill="none" stroke="#9B8CFF" stroke-width="1"/>
</svg>
