<?xml version="1.0" encoding="UTF-8"?>
<svg xmlns="http://www.w3.org/2000/svg" viewBox="0 0 200 356" width="200" height="356">
  <defs>
    <linearGradient id="bg" x1="0" y1="0" x2="0" y2="1">
      <stop offset="0%" stop-color="#070B14"/>
      <stop offset="45%" stop-color="#0A1220"/>
      <stop offset="100%" stop-color="#0E1A2B"/>
    </linearGradient>
    <linearGradient id="accent" x1="0" y1="0" x2="1" y2="1">
      <stop offset="0%" stop-color="#C8FF00"/>
      <stop offset="100%" stop-color="#00E5FF"/>
    </linearGradient>
    <linearGradient id="pageGrad" x1="0" y1="0" x2="1" y2="1">
      <stop offset="0%" stop-color="#101B2E"/>
      <stop offset="100%" stop-color="#0B1422"/>
    </linearGradient>
    <filter id="neon"><feGaussianBlur stdDeviation="2.5" result="blur"/><feMerge><feMergeNode in="blur"/><feMergeNode in="SourceGraphic"/></feMerge></filter>
  </defs>
  <rect width="200" height="356" fill="url(#bg)" rx="4"/>
  <g opacity=".09" stroke="#C8FF00" stroke-width=".3">
    <line x1="0" y1="66" x2="200" y2="66"/><line x1="0" y1="92" x2="200" y2="92"/>
    <line x1="0" y1="118" x2="200" y2="118"/><line x1="0" y1="144" x2="200" y2="144"/>
    <line x1="0" y1="170" x2="200" y2="170"/>
    <line x1="40" y1="46" x2="40" y2="188"/><line x1="80" y1="46" x2="80" y2="188"/>
    <line x1="120" y1="46" x2="120" y2="188"/><line x1="160" y1="46" x2="160" y2="188"/>
  </g>
  <g transform="translate(28,58)">
    <rect x="0" y="0" width="52" height="70" rx="3" fill="url(#pageGrad)" stroke="#C8FF00" stroke-opacity=".5" stroke-width="1"/>
    <line x1="6" y1="12" x2="46" y2="12" stroke="#C8FF00" stroke-width="2" opacity=".9"/>
    <line x1="6" y1="20" x2="46" y2="20" stroke="#7F8270" stroke-width="1.4" opacity=".6"/>
    <line x1="6" y1="27" x2="38" y2="27" stroke="#7F8270" stroke-width="1.4" opacity=".5"/>
    <line x1="6" y1="34" x2="46" y2="34" stroke="#7F8270" stroke-width="1.4" opacity=".6"/>
    <line x1="6" y1="41" x2="30" y2="41" stroke="#7F8270" stroke-width="1.4" opacity=".5"/>
    <rect x="6" y="48" width="40" height="14" rx="1.5" fill="none" stroke="#00E5FF" stroke-opacity=".55" stroke-width=".8"/>
    <line x1="6" y1="55" x2="46" y2="55" stroke="#00E5FF" stroke-opacity=".4" stroke-width=".6"/>
    <line x1="26" y1="48" x2="26" y2="62" stroke="#00E5FF" stroke-opacity=".4" stroke-width=".6"/>
    <rect x="-4" y="34" width="60" height="3" rx="1.5" fill="#C8FF00" opacity=".35" filter="url(#neon)"/>
  </g>
  <g transform="translate(86,88)">
    <line x1="0" y1="0" x2="26" y2="0" stroke="#C8FF00" stroke-width="1.4" stroke-opacity=".7" marker-end="url(#arrowh)"/>
    <circle cx="13" cy="0" r="2" fill="#00E5FF" opacity=".9">
      <animate attributeName="opacity" values="1;.2;1" dur="1.6s" repeatCount="indefinite"/>
    </circle>
  </g>
  <defs>
    <marker id="arrowh" markerWidth="6" markerHeight="6" refX="5" refY="3" orient="auto">
      <path d="M0,0 L0,6 L6,3 z" fill="#C8FF00" fill-opacity=".8"/>
    </marker>
  </defs>
  <g transform="translate(118,52)" font-family="ui-monospace,monospace">
    <rect x="0" y="0" width="52" height="70" rx="3" fill="#0B1422" stroke="#00E5FF" stroke-opacity=".45" stroke-width="1"/>
    <text x="7" y="15" font-size="8" font-weight="700" fill="#C8FF00"># Title</text>
    <text x="7" y="27" font-size="6" fill="#7F8270">## Section</text>
    <text x="7" y="37" font-size="6" fill="#7F8270">- item · **bold**</text>
    <text x="7" y="47" font-size="6" fill="#00E5FF">| a | b |</text>
    <text x="7" y="55" font-size="6" fill="#00E5FF">| - | - |</text>
    <text x="7" y="63" font-size="6" fill="#7F8270">$\int_0^1 x$</text>
    <rect x="44" y="10" width="2.5" height="9" fill="#C8FF00" opacity=".9">
      <animate attributeName="opacity" values="1;0;1" dur="1s" repeatCount="indefinite"/>
    </rect>
  </g>
  <g transform="translate(18,196)" opacity=".16" fill="none" stroke="#00E5FF" stroke-width=".7">
    <polyline points="0,0 30,-10 52,4 82,-13 112,3 142,-8 164,7"/>
  </g>
  <rect x="60" y="291" width="80" height="2" rx="1" fill="url(#accent)" opacity=".65"/>
  <g font-family="system-ui,sans-serif" font-size="5.5" fill="#475569" text-anchor="middle">
  </g>
</svg>
